HIERARCHY
ROOT Hips
{
	OFFSET 0.000000 0.000000 0.000000
	CHANNELS 6 Xposition Yposition Zposition Xrotation Yrotation Zrotation
	JOINT LeftUpLeg_virtual
	{
		OFFSET 0.000000 0.000000 0.000000
		CHANNELS 3 Xrotation Yrotation Zrotation
		JOINT LeftUpLeg
		{
			OFFSET 10.205400 -3.823500 0.155100
			CHANNELS 3 Xrotation Yrotation Zrotation
			JOINT LeftLeg
			{
				OFFSET 0.708757 -12.982077 0.567790
				CHANNELS 3 Xrotation Yrotation Zrotation
				JOINT LeftFoot
				{
					OFFSET -0.708756 -10.717838 -2.184338
					CHANNELS 3 Xrotation Yrotation Zrotation
					JOINT LeftToeBase
					{
						OFFSET 0.108149 -7.191104 7.560241
						CHANNELS 3 Xrotation Yrotation Zrotation
						JOINT LeftToe_End
						{
							OFFSET 0.070230 0.081724 4.490308
							CHANNELS 3 Xrotation Yrotation Zrotation
							End Site
							{
								OFFSET 0 0 0
							}
						}
					}
				}
			}
		}
	}
	JOINT RightUpLeg_virtual
	{
		OFFSET 0.000000 0.000000 0.000000
		CHANNELS 3 Xrotation Yrotation Zrotation
		JOINT RightUpLeg
		{
			OFFSET -10.205400 -3.823500 0.005500
			CHANNELS 3 Xrotation Yrotation Zrotation
			JOINT RightLeg
			{
				OFFSET -0.708756 -12.982134 0.610632
				CHANNELS 3 Xrotation Yrotation Zrotation
				JOINT RightFoot
				{
					OFFSET 0.708754 -10.717769 -1.945823
					CHANNELS 3 Xrotation Yrotation Zrotation
					JOINT RightToeBase
					{
						OFFSET -0.108140 -7.191069 7.372968
						CHANNELS 3 Xrotation Yrotation Zrotation
						JOINT RightToe_End
						{
							OFFSET -0.070227 0.081735 4.479403
							CHANNELS 3 Xrotation Yrotation Zrotation
							End Site
							{
								OFFSET 0 0 0
							}
						}
					}
				}
			}
		}
	}
	JOINT Spine_virtual
	{
		OFFSET 0.000000 0.000000 0.000000
		CHANNELS 3 Xrotation Yrotation Zrotation
		JOINT Spine
		{
			OFFSET 0.000000 6.876099 0.125700
			CHANNELS 3 Xrotation Yrotation Zrotation
			JOINT Spine1
			{
				OFFSET 0.000000 5.730043 0.104720
				CHANNELS 3 Xrotation Yrotation Zrotation
				JOINT Spine1_split
				{
					OFFSET 0.000000 5.730043 0.104720
					CHANNELS 3 Xrotation Yrotation Zrotation
					JOINT Spine2
					{
						OFFSET 0.000000 5.730043 0.104720
						CHANNELS 3 Xrotation Yrotation Zrotation
						JOINT Neck_virtual
						{
							OFFSET 0.000000 0.000000 0.000000
							CHANNELS 3 Xrotation Yrotation Zrotation
							JOINT Neck
							{
								OFFSET 0.000000 10.314075 0.188496
								CHANNELS 3 Xrotation Yrotation Zrotation
								JOINT Head
								{
									OFFSET 0.000000 7.643700 -2.377400
									CHANNELS 3 Xrotation Yrotation Zrotation
									JOINT HeadTop_End
									{
										OFFSET 0.000000 43.788605 -13.619600
										CHANNELS 3 Xrotation Yrotation Zrotation
										End Site
										{
											OFFSET 0 0 0
										}
									}
								}
							}
						}
						JOINT LeftShoulder_virtual
						{
							OFFSET 0.000000 0.000000 0.000000
							CHANNELS 3 Xrotation Yrotation Zrotation
							JOINT LeftShoulder
							{
								OFFSET 2.196100 4.412489 0.087492
								CHANNELS 3 Xrotation Yrotation Zrotation
								JOINT LeftShoulder_split
								{
									OFFSET 2.196100 4.412489 0.087492
									CHANNELS 3 Xrotation Yrotation Zrotation
									JOINT LeftArm
									{
										OFFSET 8.771219 -2.981674 -0.026999
										CHANNELS 3 Xrotation Yrotation Zrotation
										JOINT LeftForeArm
										{
											OFFSET 8.512804 0.000000 -0.000000
											CHANNELS 3 Xrotation Yrotation Zrotation
											JOINT LeftHand
											{
												OFFSET 18.484802 0.000000 -0.000000
												CHANNELS 3 Xrotation Yrotation Zrotation
												End Site
												{
													OFFSET 0 0 0
												}
											}
										}
									}
								}
							}
						}
						JOINT RightShoulder_virtual
						{
							OFFSET 0.000000 0.000000 0.000000
							CHANNELS 3 Xrotation Yrotation Zrotation
							JOINT RightShoulder
							{
								OFFSET -2.196100 4.412496 0.070690
								CHANNELS 3 Xrotation Yrotation Zrotation
								JOINT RightShoulder_split
								{
									OFFSET -2.196100 4.412496 0.070690
									CHANNELS 3 Xrotation Yrotation Zrotation
									JOINT RightArm
									{
										OFFSET -8.771282 -2.981682 -0.094208
										CHANNELS 3 Xrotation Yrotation Zrotation
										JOINT RightForeArm
										{
											OFFSET -8.494598 0.000000 0.000000
											CHANNELS 3 Xrotation Yrotation Zrotation
											JOINT RightHand
											{
												OFFSET -18.483803 0.000000 0.000001
												CHANNELS 3 Xrotation Yrotation Zrotation
												End Site
												{
													OFFSET 0 0 0
												}
											}
										}
									}
								}
							}
						}
					}
				}
			}
		}
	}
}
MOTION
Frames: 8
Frame Time: 0.03333333
1.918914 22.609753 54.727547 0.000000 0.000000 0.000000 10.246070 -15.951980 0.244118 66.152493 33.805229 -6.371668 -14.539128 22.168315 7.610788 -13.092901 -1.775994 -44.464228 -34.767063 -1.082504 -11.336197 0.000000 0.000000 0.000000 10.246070 -15.951980 0.244118 -91.939626 -4.520210 -8.739408 54.164886 0.322835 -7.658467 26.869679 9.372408 4.620152 -2.924069 2.984588 1.673407 0.000000 0.000000 0.000000 10.246070 -15.951980 0.244118 2.466148 -8.124023 2.259612 4.899762 -10.154799 2.662431 0.000000 0.000000 0.000000 0.000000 0.000000 0.000000 4.899740 -10.154738 2.662414 8.502562 4.160265 15.381250 -1.540121 11.907269 -20.331217 0.000000 0.000000 0.000000 4.899740 -10.154738 2.662414 -5.170244 -18.664291 -18.158312 0.000000 0.000000 0.000000 -46.432821 -18.052730 -34.485625 -9.204831 -38.217060 16.317097 0.000000 0.000000 0.000000 4.899740 -10.154738 2.662414 0.248742 -2.144193 4.457753 0.000000 0.000000 0.000000 -14.470985 21.706643 4.671662 37.782257 8.308576 -4.381102 0.000000 0.000000 0.000000 
1.811247 23.034870 56.103939 0.000000 0.000000 0.000000 13.094179 -15.392245 -1.002980 62.988715 37.346935 -4.433935 -14.611822 24.149759 7.699367 -3.578235 -5.394068 -45.569513 -42.693566 -5.484895 -12.706069 0.000000 0.000000 0.000000 13.094179 -15.392245 -1.002980 -92.201598 -5.562549 -9.329261 58.652050 1.780930 -7.835731 20.018794 7.149115 6.949526 -2.924143 2.984622 1.673450 0.000000 0.000000 0.000000 13.094179 -15.392245 -1.002980 2.526502 -9.499751 2.767269 5.005444 -13.331993 3.278267 0.000000 0.000000 0.000000 0.000000 0.000000 0.000000 5.005466 -13.331917 3.278246 6.051133 7.224990 16.300544 0.372251 15.500512 -20.487830 0.000000 0.000000 0.000000 5.005466 -13.331917 3.278246 -5.462548 -21.822314 -15.277263 0.000000 0.000000 0.000000 -41.539851 -28.186709 -42.662673 -9.093019 -26.803769 12.045796 0.000000 0.000000 0.000000 5.005466 -13.331917 3.278246 0.571907 -3.041697 8.393562 0.000000 0.000000 0.000000 -12.235274 14.739603 3.552622 31.986930 9.211522 -2.529648 0.000000 0.000000 0.000000 
1.973646 23.040977 57.643501 0.000000 0.000000 0.000000 15.367314 -20.906572 -2.055076 54.302917 38.685505 1.112961 0.663733 21.984340 6.591293 5.528900 -6.405139 -46.656414 -47.425849 -8.296037 -10.185341 0.000000 0.000000 0.000000 15.367314 -20.906572 -2.055076 -90.941469 -5.522013 -4.354683 56.954567 1.045358 -7.721151 18.602097 7.869863 8.998257 -2.924230 2.984656 1.673498 0.000000 0.000000 0.000000 15.367314 -20.906572 -2.055076 2.546283 -10.567159 3.022817 4.996716 -14.597188 3.473516 0.000000 0.000000 0.000000 0.000000 0.000000 0.000000 4.996703 -14.597163 3.473526 3.275434 10.090222 17.157577 2.001212 18.625463 -20.506443 0.000000 0.000000 0.000000 4.996703 -14.597163 3.473526 -5.377046 -23.703596 -13.318984 0.000000 0.000000 0.000000 -42.422343 -33.040309 -48.437745 -9.159000 -21.147540 7.965490 0.000000 0.000000 0.000000 4.996703 -14.597163 3.473526 0.640813 -4.012262 9.540074 0.000000 0.000000 0.000000 -11.078696 12.213167 3.421804 25.842337 9.919229 -0.269010 0.000000 0.000000 0.000000 
1.841359 23.166069 60.134537 0.000000 0.000000 0.000000 16.336506 -30.489869 -2.188640 49.923857 38.412116 0.504306 7.413719 21.917133 7.363286 18.132066 -11.918152 -32.932799 -50.271586 4.198590 -21.897527 0.000000 0.000000 0.000000 16.336506 -30.489869 -2.188640 -88.086791 -5.904139 2.519313 55.863530 1.570695 -7.477737 16.166744 9.884071 10.014201 -2.924309 2.984674 1.673528 0.000000 0.000000 0.000000 16.336506 -30.489869 -2.188640 2.425581 -10.083300 2.450002 4.901190 -14.438171 3.413745 0.000000 0.000000 0.000000 0.000000 0.000000 0.000000 4.901237 -14.438142 3.413740 0.438232 12.660381 17.929924 3.355482 21.266404 -20.351623 0.000000 0.000000 0.000000 4.901237 -14.438142 3.413740 -5.157799 -24.333242 -12.292887 0.000000 0.000000 0.000000 -44.167777 -34.537647 -52.409841 -9.134692 -17.605777 3.835009 0.000000 0.000000 0.000000 4.901237 -14.438142 3.413740 0.571556 -4.957470 9.352225 0.000000 0.000000 0.000000 -10.481211 10.565236 3.211368 19.502990 10.395745 1.972008 0.000000 0.000000 0.000000 
1.485681 23.802109 62.721321 0.000000 0.000000 0.000000 15.785672 -38.455389 -2.162566 42.231517 38.182407 5.081216 16.202115 14.800147 -1.749717 25.276657 -13.418550 -11.548676 30.027376 35.164075 53.999824 0.000000 0.000000 0.000000 15.785672 -38.455389 -2.162566 -82.907193 -5.290691 7.129570 55.423789 2.657946 -7.294897 11.957278 12.041080 10.744763 -2.924336 2.984690 1.673557 0.000000 0.000000 0.000000 15.785672 -38.455389 -2.162566 2.319981 -9.133448 1.877158 4.808418 -13.989946 3.304519 0.000000 0.000000 0.000000 0.000000 0.000000 0.000000 4.808421 -13.990093 3.304590 -2.213185 14.832838 18.592243 4.471274 23.403693 -19.992911 0.000000 0.000000 0.000000 4.808421 -13.990093 3.304590 -5.014297 -24.209495 -12.063866 0.000000 0.000000 0.000000 -45.768572 -34.792396 -54.633034 -8.986506 -15.490768 0.047441 0.000000 0.000000 0.000000 4.808421 -13.990093 3.304590 0.548289 -5.780500 9.082012 0.000000 0.000000 0.000000 -10.753136 9.687320 2.595262 13.138245 10.738105 3.535813 0.000000 0.000000 0.000000 
1.301870 24.568760 65.021217 0.000000 0.000000 0.000000 14.845196 -43.857130 -1.931323 28.978327 36.863275 15.446618 42.727912 14.041170 -5.327127 10.655414 -10.707406 -10.770273 25.094788 18.714158 20.849146 0.000000 0.000000 0.000000 14.845196 -43.857130 -1.931323 -77.879060 -1.884731 9.348898 54.760587 3.235350 -7.168414 7.462787 13.436554 12.994257 -2.924368 2.984676 1.673554 0.000000 0.000000 0.000000 14.845196 -43.857130 -1.931323 2.253541 -8.360613 1.503848 4.695490 -13.322009 3.018854 0.000000 0.000000 0.000000 0.000000 0.000000 0.000000 4.695420 -13.321814 3.018838 -4.429388 16.505511 19.109575 5.391634 25.014127 -19.400328 0.000000 0.000000 0.000000 4.695420 -13.321814 3.018838 -4.736595 -24.033771 -11.562550 0.000000 0.000000 0.000000 -47.608669 -35.222507 -55.319136 -8.725346 -14.972056 -2.859730 0.000000 0.000000 0.000000 4.695420 -13.321814 3.018838 0.489548 -6.448414 8.415415 0.000000 0.000000 0.000000 -12.910685 9.604458 1.956852 6.881784 11.381515 4.245354 0.000000 0.000000 0.000000 
0.861315 25.622288 67.640694 0.000000 0.000000 0.000000 14.177159 -47.432150 -1.320497 13.940274 33.857770 26.203527 65.340479 13.603462 -5.196699 -5.125841 -6.351007 -8.988133 -5.698246 7.518611 -4.896193 0.000000 0.000000 0.000000 14.177159 -47.432150 -1.320497 -71.884456 3.029622 9.789083 54.884255 3.839753 -7.069303 0.449931 13.300689 15.817156 -2.924321 2.984640 1.673536 0.000000 0.000000 0.000000 14.177159 -47.432150 -1.320497 2.184661 -7.158425 1.017482 4.573196 -12.484975 2.588475 0.000000 0.000000 0.000000 0.000000 0.000000 0.000000 4.573159 -12.484962 2.588518 -5.940753 17.584431 19.443786 6.154467 26.067198 -18.559446 0.000000 0.000000 0.000000 4.573159 -12.484962 2.588518 -4.108542 -23.662876 -10.374147 0.000000 0.000000 0.000000 -50.189985 -37.221102 -54.819290 -8.386743 -16.198347 -4.333035 0.000000 0.000000 0.000000 4.573159 -12.484962 2.588518 0.372879 -7.124365 7.242115 0.000000 0.000000 0.000000 -16.551936 9.814650 1.562683 0.815434 12.834023 4.295114 0.000000 0.000000 0.000000 
0.487848 26.685612 70.071144 0.000000 0.000000 0.000000 12.446599 -48.882315 -0.621770 -0.309691 28.144194 36.066828 80.446310 9.952358 -2.755949 -18.366667 -4.120632 -8.096909 -14.564033 11.017506 -14.756567 0.000000 0.000000 0.000000 12.446599 -48.882315 -0.621770 -65.065857 9.046174 7.854841 55.357652 5.318235 -6.899845 -6.795878 10.921323 18.387405 -2.924219 2.984597 1.673482 0.000000 0.000000 0.000000 12.446599 -48.882315 -0.621770 2.130861 -5.962812 0.509208 4.440396 -11.538506 1.966145 0.000000 0.000000 0.000000 0.000000 0.000000 0.000000 4.440396 -11.538521 1.966185 -6.498098 17.967615 19.561646 6.830978 26.528540 -17.466423 0.000000 0.000000 0.000000 4.440396 -11.538521 1.966185 -2.527669 -22.507174 -7.315139 0.000000 0.000000 0.000000 -53.654165 -41.530463 -52.612312 -7.593280 -21.434857 -5.121157 0.000000 0.000000 0.000000 4.440396 -11.538521 1.966185 0.155737 -7.812783 5.596939 0.000000 0.000000 0.000000 -21.435632 10.777738 1.532109 -5.020449 15.600584 3.057471 0.000000 0.000000 0.000000 
